<svg xmlns="http://www.w3.org/2000/svg" xmlns:xlink="http://www.w3.org/1999/xlink" width="2000" zoomAndPan="magnify" viewBox="0 0 1500 1499.999933" height="2000" preserveAspectRatio="xMidYMid meet" version="1.0"><path fill="#ffffff" d="M 444.820312 604.996094 L 589.695312 894.753906 L 499.15625 894.753906 L 420.476562 737.722656 L 263.703125 894.753906 L 155.027344 894.753906 Z M 444.820312 604.996094 " fill-opacity="1" fill-rule="nonzero"/><path fill="#ffffff" d="M 573.285156 604.996094 L 657.621094 773.921875 L 826.839844 604.996094 L 844.941406 604.996094 L 989.816406 894.753906 L 899.277344 894.753906 L 814.648438 725.570312 L 645.722656 894.753906 L 627.625 894.753906 L 482.746094 604.996094 Z M 573.285156 604.996094 " fill-opacity="1" fill-rule="nonzero"/><path fill="#ffffff" d="M 1086.574219 607.527344 L 1086.574219 620.121094 L 1097.554688 620.121094 L 1097.554688 679.78125 L 1110.148438 679.78125 L 1110.148438 607.527344 Z M 1086.574219 607.527344 " fill-opacity="1" fill-rule="nonzero"/><path fill="#ffffff" d="M 1116.8125 607.527344 L 1116.8125 620.121094 L 1127.792969 620.121094 L 1127.792969 679.78125 L 1140.386719 679.78125 L 1140.386719 607.527344 Z M 1116.8125 607.527344 " fill-opacity="1" fill-rule="nonzero"/><path fill="#ffffff" d="M 950.28125 668.285156 C 938.902344 668.285156 929.648438 659.035156 929.648438 647.652344 C 929.648438 636.273438 938.902344 627.019531 950.28125 627.019531 C 961.664062 627.019531 970.917969 636.273438 970.917969 647.652344 C 970.917969 659.035156 961.664062 668.285156 950.28125 668.285156 M 990.777344 655.949219 C 991.328125 653.929688 991.808594 651.214844 991.84375 647.984375 C 991.878906 644.460938 991.328125 641.523438 990.777344 639.355469 L 983.765625 639.355469 C 982.921875 635.941406 981.601562 632.710938 979.839844 629.738281 L 984.757812 624.816406 C 983.65625 622.90625 981.96875 620.410156 979.433594 617.949219 C 977.15625 615.710938 974.84375 614.132812 973.046875 613.066406 C 971.429688 614.683594 969.816406 616.296875 968.199219 617.914062 C 965.1875 616.078125 961.921875 614.644531 958.433594 613.765625 L 958.433594 607.007812 C 956.414062 606.460938 953.695312 605.980469 950.464844 605.945312 C 946.941406 605.910156 944.003906 606.460938 941.839844 607.007812 L 941.839844 613.617188 C 938.3125 614.425781 934.972656 615.785156 931.960938 617.582031 C 930.417969 616.042969 928.878906 614.535156 927.335938 612.996094 C 925.535156 614.058594 923.261719 615.601562 920.945312 617.878906 C 918.414062 620.335938 916.726562 622.796875 915.625 624.742188 L 920.101562 629.1875 C 918.15625 632.304688 916.6875 635.722656 915.808594 639.355469 L 909.640625 639.355469 C 909.050781 641.523438 908.539062 644.460938 908.539062 647.984375 C 908.574219 651.214844 909.089844 653.929688 909.640625 655.949219 L 915.808594 655.949219 C 916.6875 659.585938 918.121094 662.964844 920.03125 666.046875 L 915.585938 670.488281 C 916.6875 672.398438 918.378906 674.859375 920.910156 677.320312 C 923.1875 679.59375 925.5 681.175781 927.300781 682.238281 C 928.804688 680.695312 930.347656 679.191406 931.851562 677.6875 C 934.898438 679.523438 938.277344 680.917969 941.875 681.726562 L 941.875 688.148438 C 944.003906 688.738281 946.941406 689.25 950.464844 689.214844 C 953.695312 689.214844 956.414062 688.699219 958.46875 688.148438 L 958.46875 681.578125 C 961.957031 680.660156 965.226562 679.226562 968.234375 677.390625 C 969.816406 678.972656 971.394531 680.550781 973.007812 682.164062 C 974.808594 681.101562 977.085938 679.523438 979.398438 677.246094 C 981.929688 674.785156 983.621094 672.324219 984.722656 670.417969 L 979.839844 665.535156 C 981.601562 662.597656 982.921875 659.367188 983.765625 655.949219 Z M 990.777344 655.949219 " fill-opacity="1" fill-rule="nonzero"/><path fill="#ffffff" d="M 1032.265625 666.308594 C 1021.472656 661.902344 1016.296875 649.566406 1020.703125 638.773438 C 1025.109375 627.976562 1037.445312 622.800781 1048.238281 627.242188 C 1059.03125 631.648438 1064.210938 643.949219 1059.804688 654.742188 C 1055.398438 665.539062 1043.0625 670.714844 1032.265625 666.308594 M 1075.40625 670.308594 C 1076.691406 668.585938 1078.234375 666.199219 1079.519531 663.152344 C 1080.914062 659.847656 1081.539062 656.835938 1081.832031 654.597656 L 1075.1875 651.878906 C 1075.738281 648.28125 1075.699219 644.71875 1075.1875 641.230469 L 1081.757812 638.441406 C 1081.464844 636.203125 1080.804688 633.226562 1079.371094 629.921875 C 1078.085938 626.875 1076.507812 624.488281 1075.1875 622.800781 C 1073.058594 623.71875 1070.890625 624.601562 1068.726562 625.519531 C 1066.632812 622.617188 1064.0625 620.011719 1061.089844 617.808594 C 1061.96875 615.679688 1062.851562 613.546875 1063.730469 611.417969 C 1062.007812 610.132812 1059.621094 608.59375 1056.574219 607.308594 C 1053.230469 605.910156 1050.257812 605.289062 1048.019531 604.992188 L 1045.449219 611.234375 C 1041.777344 610.648438 1038.105469 610.648438 1034.507812 611.164062 C 1033.664062 609.144531 1032.78125 607.085938 1031.9375 605.03125 C 1029.808594 605.359375 1027.054688 605.949219 1023.96875 607.195312 C 1020.628906 608.554688 1018.09375 610.246094 1016.296875 611.601562 L 1018.792969 617.585938 C 1015.746094 619.789062 1013.066406 622.46875 1010.789062 625.589844 L 1004.953125 623.167969 C 1003.59375 625.003906 1001.941406 627.574219 1000.582031 630.914062 C 999.371094 634 998.78125 636.753906 998.527344 638.882812 C 1000.472656 639.691406 1002.417969 640.496094 1004.363281 641.304688 C 1003.8125 645.050781 1003.851562 648.832031 1004.472656 652.464844 L 998.527344 654.964844 C 998.855469 657.203125 999.480469 660.214844 1000.914062 663.519531 C 1002.234375 666.527344 1003.777344 668.914062 1005.097656 670.605469 C 1007.117188 669.757812 1009.136719 668.914062 1011.15625 668.070312 C 1013.359375 671.007812 1016.003906 673.613281 1019.085938 675.78125 L 1016.589844 681.875 C 1018.390625 683.234375 1020.996094 684.886719 1024.335938 686.207031 C 1027.421875 687.457031 1030.175781 688.007812 1032.304688 688.300781 C 1033.148438 686.207031 1034.03125 684.113281 1034.875 682.058594 C 1038.546875 682.574219 1042.21875 682.5 1045.742188 681.875 C 1046.660156 684.003906 1047.539062 686.097656 1048.421875 688.226562 C 1050.550781 687.933594 1053.339844 687.347656 1056.390625 686.097656 C 1059.730469 684.703125 1062.300781 683.050781 1064.0625 681.65625 L 1061.34375 675.15625 C 1064.136719 673.0625 1066.667969 670.492188 1068.761719 667.59375 C 1070.964844 668.511719 1073.203125 669.390625 1075.40625 670.308594 " fill-opacity="1" fill-rule="nonzero"/><path fill="#ffffff" d="M 1190.699219 668.367188 C 1179.316406 668.367188 1170.066406 659.117188 1170.066406 647.734375 C 1170.066406 636.351562 1179.316406 627.101562 1190.699219 627.101562 C 1202.082031 627.101562 1211.332031 636.351562 1211.332031 647.734375 C 1211.332031 659.117188 1202.082031 668.367188 1190.699219 668.367188 M 1231.195312 656.03125 C 1231.746094 654.011719 1232.222656 651.296875 1232.261719 648.066406 C 1232.296875 644.539062 1231.746094 641.601562 1231.195312 639.4375 L 1224.183594 639.4375 C 1223.339844 636.023438 1222.015625 632.792969 1220.253906 629.816406 L 1225.175781 624.898438 C 1224.074219 622.988281 1222.382812 620.492188 1219.851562 618.03125 C 1217.574219 615.792969 1215.261719 614.214844 1213.460938 613.148438 C 1211.847656 614.765625 1210.230469 616.378906 1208.617188 617.996094 C 1205.605469 616.160156 1202.339844 614.726562 1198.851562 613.847656 L 1198.851562 607.089844 C 1196.832031 606.539062 1194.113281 606.0625 1190.882812 606.027344 C 1187.359375 605.988281 1184.421875 606.539062 1182.253906 607.089844 L 1182.253906 613.699219 C 1178.730469 614.507812 1175.390625 615.867188 1172.378906 617.664062 L 1167.753906 613.074219 C 1165.953125 614.140625 1163.675781 615.683594 1161.363281 617.957031 C 1158.832031 620.417969 1157.140625 622.878906 1156.039062 624.824219 L 1160.519531 629.265625 C 1158.574219 632.386719 1157.105469 635.800781 1156.222656 639.4375 L 1150.054688 639.4375 C 1149.46875 641.601562 1148.953125 644.539062 1148.953125 648.066406 C 1148.992188 651.296875 1149.503906 654.011719 1150.054688 656.03125 L 1156.222656 656.03125 C 1157.105469 659.667969 1158.539062 663.042969 1160.445312 666.128906 L 1156.003906 670.570312 C 1157.105469 672.480469 1158.792969 674.941406 1161.328125 677.398438 C 1163.605469 679.675781 1165.917969 681.253906 1167.714844 682.320312 C 1169.222656 680.777344 1170.761719 679.273438 1172.269531 677.765625 C 1175.316406 679.601562 1178.695312 680.996094 1182.292969 681.804688 L 1182.292969 688.230469 C 1184.421875 688.816406 1187.359375 689.332031 1190.882812 689.296875 C 1194.113281 689.296875 1196.832031 688.78125 1198.886719 688.230469 L 1198.886719 681.660156 C 1202.375 680.742188 1205.640625 679.308594 1208.652344 677.472656 C 1210.230469 679.050781 1211.8125 680.628906 1213.425781 682.246094 C 1215.226562 681.179688 1217.5 679.601562 1219.816406 677.328125 C 1222.347656 674.867188 1224.035156 672.40625 1225.136719 670.496094 L 1220.253906 665.613281 C 1222.015625 662.675781 1223.339844 659.445312 1224.183594 656.03125 Z M 1231.195312 656.03125 " fill-opacity="1" fill-rule="nonzero"/><path fill="#ffffff" d="M 962.226562 714.375 L 962.226562 726.96875 L 973.203125 726.96875 L 973.203125 786.628906 L 985.796875 786.628906 L 985.796875 714.375 Z M 962.226562 714.375 " fill-opacity="1" fill-rule="nonzero"/><path fill="#ffffff" d="M 1082.433594 714.332031 L 1082.433594 726.925781 L 1093.414062 726.925781 L 1093.414062 786.585938 L 1106.003906 786.585938 L 1106.003906 714.332031 Z M 1082.433594 714.332031 " fill-opacity="1" fill-rule="nonzero"/><path fill="#ffffff" d="M 1244.292969 771.464844 C 1232.652344 771.464844 1223.21875 762.027344 1223.21875 750.390625 C 1223.21875 738.75 1232.652344 729.351562 1244.292969 729.351562 C 1255.929688 729.351562 1265.367188 738.75 1265.367188 750.390625 C 1265.367188 762.027344 1255.929688 771.464844 1244.292969 771.464844 M 1265.109375 714.335938 L 1223.476562 714.335938 L 1202.65625 750.390625 L 1223.476562 786.480469 L 1265.109375 786.480469 L 1285.925781 750.390625 Z M 1265.109375 714.335938 " fill-opacity="1" fill-rule="nonzero"/><path fill="#ffffff" d="M 1154.320312 771.464844 C 1142.679688 771.464844 1133.246094 762.027344 1133.246094 750.390625 C 1133.246094 738.75 1142.679688 729.351562 1154.320312 729.351562 C 1165.957031 729.351562 1175.394531 738.75 1175.394531 750.390625 C 1175.394531 762.027344 1165.957031 771.464844 1154.320312 771.464844 M 1175.136719 714.335938 L 1133.5 714.335938 L 1112.683594 750.390625 L 1133.5 786.480469 L 1175.136719 786.480469 L 1195.953125 750.390625 Z M 1175.136719 714.335938 " fill-opacity="1" fill-rule="nonzero"/><path fill="#ffffff" d="M 1034.113281 771.421875 C 1022.476562 771.421875 1013.039062 761.988281 1013.039062 750.347656 C 1013.039062 738.710938 1022.476562 729.3125 1034.113281 729.3125 C 1045.753906 729.3125 1055.1875 738.710938 1055.1875 750.347656 C 1055.1875 761.988281 1045.753906 771.421875 1034.113281 771.421875 M 1054.929688 714.292969 L 1013.296875 714.292969 L 992.480469 750.347656 L 1013.296875 786.441406 L 1054.929688 786.441406 L 1075.75 750.347656 Z M 1054.929688 714.292969 " fill-opacity="1" fill-rule="nonzero"/><path fill="#ffffff" d="M 1282.179688 814.210938 L 1282.179688 826.804688 L 1293.15625 826.804688 L 1293.15625 886.464844 L 1305.75 886.464844 L 1305.75 814.210938 Z M 1282.179688 814.210938 " fill-opacity="1" fill-rule="nonzero"/><path fill="#ffffff" d="M 1313.675781 814.210938 L 1313.675781 826.804688 L 1324.652344 826.804688 L 1324.652344 886.464844 L 1337.246094 886.464844 L 1337.246094 814.210938 Z M 1313.675781 814.210938 " fill-opacity="1" fill-rule="nonzero"/><path fill="#ffffff" d="M 1227.210938 872.917969 C 1216.417969 868.511719 1211.242188 856.175781 1215.648438 845.382812 C 1220.054688 834.585938 1232.390625 829.410156 1243.183594 833.851562 C 1253.976562 838.257812 1259.15625 850.558594 1254.75 861.351562 C 1250.34375 872.148438 1238.007812 877.324219 1227.210938 872.917969 M 1270.351562 876.921875 C 1271.636719 875.195312 1273.179688 872.808594 1274.464844 869.761719 C 1275.859375 866.457031 1276.484375 863.445312 1276.777344 861.207031 L 1270.132812 858.488281 C 1270.683594 854.890625 1270.644531 851.328125 1270.132812 847.839844 L 1276.703125 845.050781 C 1276.410156 842.8125 1275.75 839.839844 1274.316406 836.535156 C 1273.03125 833.484375 1271.453125 831.101562 1270.132812 829.410156 C 1268.003906 830.328125 1265.835938 831.210938 1263.671875 832.128906 C 1261.578125 829.226562 1259.007812 826.621094 1256.035156 824.417969 C 1256.914062 822.289062 1257.796875 820.160156 1258.675781 818.027344 C 1256.953125 816.746094 1254.566406 815.203125 1251.519531 813.917969 C 1248.175781 812.523438 1245.203125 811.898438 1242.964844 811.605469 L 1240.394531 817.84375 C 1236.722656 817.257812 1233.050781 817.257812 1229.453125 817.808594 C 1228.609375 815.753906 1227.726562 813.695312 1226.882812 811.640625 C 1224.753906 811.972656 1222 812.558594 1218.914062 813.808594 C 1215.574219 815.164062 1213.039062 816.855469 1211.242188 818.210938 L 1213.738281 824.199219 C 1210.691406 826.398438 1208.011719 829.082031 1205.734375 832.203125 L 1199.898438 829.777344 C 1198.539062 831.613281 1196.886719 834.183594 1195.527344 837.523438 C 1194.316406 840.609375 1193.730469 843.363281 1193.472656 845.492188 C 1195.417969 846.300781 1197.363281 847.109375 1199.308594 847.914062 C 1198.757812 851.660156 1198.796875 855.441406 1199.417969 859.078125 L 1193.472656 861.574219 C 1193.800781 863.8125 1194.425781 866.824219 1195.859375 870.128906 C 1197.179688 873.136719 1198.722656 875.523438 1200.042969 877.214844 C 1202.0625 876.371094 1204.082031 875.523438 1206.101562 874.679688 C 1208.304688 877.617188 1210.949219 880.222656 1214.03125 882.390625 L 1211.535156 888.484375 C 1213.335938 889.84375 1215.941406 891.496094 1219.28125 892.816406 C 1222.367188 894.066406 1225.121094 894.617188 1227.25 894.910156 C 1228.09375 892.816406 1228.976562 890.726562 1229.820312 888.667969 C 1233.492188 889.183594 1237.164062 889.109375 1240.6875 888.484375 C 1241.605469 890.613281 1242.484375 892.707031 1243.367188 894.835938 C 1245.496094 894.542969 1248.285156 893.957031 1251.335938 892.707031 C 1254.675781 891.3125 1257.246094 889.660156 1259.007812 888.265625 L 1256.289062 881.765625 C 1259.082031 879.671875 1261.613281 877.105469 1263.707031 874.203125 C 1265.910156 875.121094 1268.148438 876.003906 1270.351562 876.921875 " fill-opacity="1" fill-rule="nonzero"/><path fill="#ffffff" d="M 1145.222656 873.957031 C 1133.84375 873.957031 1124.589844 864.703125 1124.589844 853.324219 C 1124.589844 841.941406 1133.84375 832.6875 1145.222656 832.6875 C 1156.605469 832.6875 1165.859375 841.941406 1165.859375 853.324219 C 1165.859375 864.703125 1156.605469 873.957031 1145.222656 873.957031 M 1185.722656 861.621094 C 1186.273438 859.601562 1186.75 856.882812 1186.785156 853.652344 C 1186.824219 850.128906 1186.273438 847.191406 1185.722656 845.027344 L 1178.707031 845.027344 C 1177.863281 841.609375 1176.542969 838.378906 1174.78125 835.40625 L 1179.699219 830.488281 C 1178.597656 828.578125 1176.910156 826.082031 1174.375 823.621094 C 1172.101562 821.382812 1169.785156 819.800781 1167.988281 818.738281 C 1166.371094 820.351562 1164.757812 821.96875 1163.140625 823.585938 C 1160.128906 821.75 1156.863281 820.316406 1153.375 819.433594 L 1153.375 812.679688 C 1151.355469 812.128906 1148.640625 811.652344 1145.40625 811.613281 C 1141.882812 811.578125 1138.945312 812.128906 1136.78125 812.679688 L 1136.78125 819.289062 C 1133.253906 820.097656 1129.914062 821.453125 1126.902344 823.253906 C 1125.363281 821.710938 1123.820312 820.207031 1122.277344 818.664062 C 1120.476562 819.730469 1118.203125 821.269531 1115.890625 823.546875 C 1113.355469 826.007812 1111.667969 828.46875 1110.566406 830.414062 L 1115.042969 834.855469 C 1113.097656 837.976562 1111.628906 841.390625 1110.75 845.027344 L 1104.582031 845.027344 C 1103.992188 847.191406 1103.480469 850.128906 1103.480469 853.652344 C 1103.515625 856.882812 1104.03125 859.601562 1104.582031 861.621094 L 1110.75 861.621094 C 1111.628906 865.253906 1113.0625 868.632812 1114.972656 871.71875 L 1110.527344 876.160156 C 1111.628906 878.070312 1113.320312 880.527344 1115.851562 882.988281 C 1118.128906 885.265625 1120.441406 886.84375 1122.242188 887.910156 C 1123.746094 886.367188 1125.289062 884.863281 1126.792969 883.355469 C 1129.839844 885.191406 1133.21875 886.585938 1136.816406 887.394531 L 1136.816406 893.820312 C 1138.945312 894.40625 1141.882812 894.921875 1145.40625 894.882812 C 1148.640625 894.882812 1151.355469 894.371094 1153.375 893.820312 L 1153.375 887.246094 C 1156.898438 886.328125 1160.167969 884.898438 1163.179688 883.0625 C 1164.757812 884.640625 1166.335938 886.21875 1167.949219 887.835938 C 1169.75 886.769531 1172.027344 885.191406 1174.339844 882.914062 C 1176.871094 880.457031 1178.5625 877.996094 1179.664062 876.085938 L 1174.78125 871.203125 C 1176.542969 868.265625 1177.863281 865.035156 1178.707031 861.621094 Z M 1185.722656 861.621094 " fill-opacity="1" fill-rule="nonzero"/><path fill="#ffffff" d="M 1047.269531 872.917969 C 1036.472656 868.511719 1031.296875 856.175781 1035.703125 845.382812 C 1040.109375 834.585938 1052.445312 829.410156 1063.238281 833.851562 C 1074.035156 838.257812 1079.210938 850.558594 1074.804688 861.351562 C 1070.398438 872.148438 1058.0625 877.324219 1047.269531 872.917969 M 1090.410156 876.921875 C 1091.695312 875.195312 1093.234375 872.808594 1094.519531 869.761719 C 1095.917969 866.457031 1096.539062 863.445312 1096.835938 861.207031 L 1090.1875 858.488281 C 1090.738281 854.890625 1090.703125 851.328125 1090.1875 847.839844 L 1096.761719 845.050781 C 1096.46875 842.8125 1095.804688 839.839844 1094.375 836.535156 C 1093.089844 833.484375 1091.511719 831.101562 1090.1875 829.410156 C 1088.058594 830.328125 1085.894531 831.210938 1083.726562 832.128906 C 1081.632812 829.226562 1079.0625 826.621094 1076.089844 824.417969 C 1076.972656 822.289062 1077.851562 820.160156 1078.734375 818.027344 C 1077.007812 816.746094 1074.621094 815.203125 1071.574219 813.917969 C 1068.234375 812.523438 1065.257812 811.898438 1063.019531 811.605469 L 1060.449219 817.84375 C 1056.777344 817.257812 1053.105469 817.257812 1049.507812 817.808594 C 1048.664062 815.753906 1047.78125 813.695312 1046.9375 811.640625 C 1044.808594 811.972656 1042.054688 812.558594 1038.972656 813.808594 C 1035.628906 815.164062 1033.097656 816.855469 1031.296875 818.210938 L 1033.792969 824.199219 C 1030.746094 826.398438 1028.066406 829.082031 1025.789062 832.203125 L 1019.953125 829.777344 C 1018.59375 831.613281 1016.941406 834.183594 1015.582031 837.523438 C 1014.371094 840.609375 1013.785156 843.363281 1013.527344 845.492188 C 1015.472656 846.300781 1017.417969 847.109375 1019.367188 847.914062 C 1018.816406 851.660156 1018.851562 855.441406 1019.476562 859.078125 L 1013.527344 861.574219 C 1013.859375 863.8125 1014.480469 866.824219 1015.914062 870.128906 C 1017.234375 873.136719 1018.777344 875.523438 1020.101562 877.214844 C 1022.117188 876.371094 1024.136719 875.523438 1026.15625 874.679688 C 1028.359375 877.617188 1031.003906 880.222656 1034.089844 882.390625 L 1031.589844 888.484375 C 1033.390625 889.84375 1035.996094 891.496094 1039.339844 892.816406 C 1042.421875 894.066406 1045.175781 894.617188 1047.304688 894.910156 C 1048.148438 892.816406 1049.03125 890.726562 1049.875 888.667969 C 1053.546875 889.183594 1057.21875 889.109375 1060.742188 888.484375 C 1061.660156 890.613281 1062.542969 892.707031 1063.421875 894.835938 C 1065.554688 894.542969 1068.34375 893.957031 1071.390625 892.707031 C 1074.730469 891.3125 1077.300781 889.660156 1079.0625 888.265625 L 1076.347656 881.765625 C 1079.136719 879.671875 1081.671875 877.105469 1083.761719 874.203125 C 1085.964844 875.121094 1088.207031 876.003906 1090.410156 876.921875 " fill-opacity="1" fill-rule="nonzero"/></svg>